<svg xmlns="http://www.w3.org/2000/svg" version="1.1" xmlns:xlink="http://www.w3.org/1999/xlink" xmlns:svgjs="http://svgjs.dev/svgjs" width="1500" height="568" viewBox="0 0 1500 568"><g transform="matrix(1,0,0,1,-0.9084522071641459,0.12127928961405132)"><svg viewBox="0 0 396 150" data-background-color="#ffffff" preserveAspectRatio="xMidYMid meet" height="568" width="1500" xmlns="http://www.w3.org/2000/svg" xmlns:xlink="http://www.w3.org/1999/xlink"><g id="tight-bounds" transform="matrix(1,0,0,1,0.24008861730862918,-0.031872583559589884)"><svg viewBox="0 0 395.52 150.06390056497173" height="150.06390056497173" width="395.52"><g><svg viewBox="0 0 395.52 150.06390056497173" height="150.06390056497173" width="395.52"><g><svg viewBox="0 0 395.52 150.06390056497173" height="150.06390056497173" width="395.52"><g id="textblocktransform"><svg viewBox="0 0 395.52 150.06390056497173" height="150.06390056497173" width="395.52" id="textblock"><g><svg viewBox="0 0 395.52 150.06390056497173" height="150.06390056497173" width="395.52"><path d="M394.594 32.186C392.735 16.609 387.435 12.279 387.435 12.279 371.165-3.765 350.86-0.307 332.619 1.998 300.414 2.092 268.339 5.519 236.208 7.357 168.767 7.637 100.749 3.026 33.643 14.397 27.339 17.887-6.54 15.083 1.121 34.18 3.129 42.124 10.456 50.94 10.232 58.23 11.236 59.507 12.631 56.579 13.226 58.417 15.309 63.37 18.711 61.034 21.501 63.962 17.614 71.782 20.403 78.293 23.062 85.115 18.377 86.891 12.371 86.05 9.675 91.938 9.396 96.206 7.89 95.396 6.235 95.209 5.026 95.084 2.59 95.551 2.999 96.891 4.394 101.47-1.594 104.118 2.162 108.605-0.422 113.464 3.948 117.67 3.353 122.935 3.278 123.994 3.687 124.898 4.338 125.147 7.22 126.486 3.018 129.103 3.464 131.938 33.029 151.316 65.104 137.92 95.394 146.829 103.259 140.599 97.346 149.041 100.489 147.733 102.943 146.206 104.728 152.53 107.499 148.948 107.927 147.92 107.276 145.49 108.8 145.957 109.6 146.206 110.307 146.144 110.418 144.711 110.586 142.561 109.117 143.901 108.726 142.78 112.947 137.11 111.906 150.599 115.866 150.038 115.68 148.387 114.528 146.019 116.889 146.331 119.232 143.963 119.306 142.001 121.389 147.328 121.463 148.481 121.835 149.291 122.43 149.851 128.938 144.057 135.409 151.907 142.233 149.291 146.417 146.424 150.433 150.848 154.672 149.758 156.16 148.886 157.666 147.328 159.098 149.945 176.632 150.506 195.319 148.169 211.943 150.038 256.364 146.549 303.836 151.471 350.674 146.861 361.719 145.085 373.192 142.561 383.958 140.537 383.958 140.537 392.679 134.991 392.679 110.069S394.538 88.262 394.817 68.417C395.096 48.572 396.398 47.762 394.538 32.186Z" opacity="1" fill="#624cf5" data-fill-palette-color="tertiary"></path><g transform="matrix(1,0,0,1,55.76832,26.230666666666668)"><svg width="283.98335999999995" viewBox="3.75 -36.5 106.19 36.5" height="97.6025672316384" data-palette-color="#ffffff"><path d="M42.5-15.25L42.5 0 39.1 0 39.1-14.55Q39.1-19.1 37.65-21.25 36.2-23.4 33.35-23.4L33.35-23.4Q30.4-23.4 28.08-21.3 25.75-19.2 24.8-15.9L24.8-15.9 24.8 0 21.4 0 21.4-14.55Q21.4-19.15 20-21.28 18.6-23.4 15.7-23.4L15.7-23.4Q12.8-23.4 10.45-21.35 8.1-19.3 7.15-15.95L7.15-15.95 7.15 0 3.75 0 3.75-26.05 6.85-26.05 6.85-20.15Q8.5-23.2 11.08-24.85 13.65-26.5 16.8-26.5L16.8-26.5Q20.05-26.5 22.05-24.65 24.05-22.8 24.5-19.8L24.5-19.8Q26.3-23.1 28.83-24.8 31.35-26.5 34.55-26.5L34.55-26.5Q36.75-26.5 38.27-25.7 39.8-24.9 40.73-23.43 41.65-21.95 42.08-19.88 42.5-17.8 42.5-15.25L42.5-15.25ZM53.1 0L49.7 0 49.7-26.05 53.1-26.05 53.1 0ZM53.1-31.5L49.7-31.5 49.7-36.5 53.1-36.5 53.1-31.5ZM99.34-15.25L99.34 0 95.95 0 95.95-14.55Q95.95-19.1 94.5-21.25 93.05-23.4 90.2-23.4L90.2-23.4Q87.25-23.4 84.92-21.3 82.59-19.2 81.65-15.9L81.65-15.9 81.65 0 78.25 0 78.25-14.55Q78.25-19.15 76.84-21.28 75.45-23.4 72.55-23.4L72.55-23.4Q69.65-23.4 67.3-21.35 64.95-19.3 64-15.95L64-15.95 64 0 60.6 0 60.6-26.05 63.7-26.05 63.7-20.15Q65.34-23.2 67.92-24.85 70.5-26.5 73.65-26.5L73.65-26.5Q76.9-26.5 78.9-24.65 80.9-22.8 81.34-19.8L81.34-19.8Q83.15-23.1 85.67-24.8 88.2-26.5 91.4-26.5L91.4-26.5Q93.59-26.5 95.12-25.7 96.65-24.9 97.57-23.43 98.5-21.95 98.92-19.88 99.34-17.8 99.34-15.25L99.34-15.25ZM109.94 0L106.54 0 106.54-26.05 109.94-26.05 109.94 0ZM109.94-31.5L106.54-31.5 106.54-36.5 109.94-36.5 109.94-31.5Z" opacity="1" transform="matrix(1,0,0,1,0,0)" fill="#ffffff" class="wordmark-text-0" data-fill-palette-color="quaternary" id="text-0"></path></svg></g></svg></g></svg></g></svg></g><g></g></svg></g><defs></defs></svg><rect width="395.52" height="150.06390056497173" fill="none" stroke="none" visibility="hidden"></rect></g></svg></g></svg>