<svg width="60" height="43" viewBox="0 0 60 43" fill="none" xmlns="http://www.w3.org/2000/svg">
<path fill-rule="evenodd" clip-rule="evenodd" d="M36.9473 7.14757C37.0832 7.72085 36.808 8.25269 36.3536 8.7071L11.3536 33.7071L10.6096 33.0412L24.97 15.0906L6.35356 33.7071L5.60957 33.0412L19.97 15.0906L1.35356 33.7071L0.646454 33L25.6465 7.99999L26.3904 8.66589L12.03 26.6164L30.6465 7.99999L31.3904 8.66589L17.03 26.6164L35.6465 7.99999C35.992 7.6544 35.9939 7.46124 35.9742 7.37827C35.9459 7.25897 35.8082 7.05682 35.3778 6.81404C34.534 6.33807 33 5.94758 31.0611 5.64767C27.219 5.05341 22.0734 4.85355 18.5 4.85355V3.85355C22.0933 3.85355 27.2977 4.05368 31.2139 4.65942C33.1541 4.95952 34.8515 5.36903 35.8691 5.94305C36.3694 6.22527 36.82 6.61062 36.9473 7.14757Z" fill="black"/>
<path fill-rule="evenodd" clip-rule="evenodd" d="M34.97 15.0907L16.3535 33.7071L15.6096 33.0412L35.6096 8.04121L36.3904 8.6659L22.03 26.6165L40.6464 8L41.3904 8.6659L27.03 26.6165L45.6464 8L46.3904 8.6659L32.03 26.6165L50.6464 8L51.3535 8.70711L26.3535 33.7071L25.6096 33.0412L39.97 15.0907L21.3535 33.7071L20.6096 33.0412L34.97 15.0907Z" fill="black"/>
<path fill-rule="evenodd" clip-rule="evenodd" d="M6 1.85355H19C25.3421 1.85355 34.5663 2.15368 41.6136 3.05761C45.1236 3.50782 48.1502 4.11415 50.008 4.93357C50.9167 5.33436 51.6699 5.83791 51.9773 6.50953C52.1411 6.86737 52.1685 7.25275 52.0487 7.64217C51.933 8.01835 51.6885 8.3721 51.3536 8.7071L50.6464 7.99999C50.9114 7.73499 51.041 7.51686 51.0929 7.34812C51.1407 7.19263 51.1295 7.06003 51.068 6.92569C50.9249 6.61293 50.4812 6.23523 49.6045 5.84852C47.8914 5.09295 44.9931 4.49928 41.4864 4.04948C34.5004 3.15341 25.3246 2.85355 19 2.85355H6V1.85355Z" fill="black"/>
<path fill-rule="evenodd" clip-rule="evenodd" d="M30.6096 33.0412L50.6096 8.0412L51.3904 8.66589L31.3904 33.6659L30.6096 33.0412Z" fill="black"/>
<path fill-rule="evenodd" clip-rule="evenodd" d="M44.3536 0.707107L38.3536 6.70711L37.6465 6L43.6465 0L44.3536 0.707107Z" fill="black"/>
<path fill-rule="evenodd" clip-rule="evenodd" d="M59.3536 0.707107L53.3536 6.70711L52.6465 6L58.6465 0L59.3536 0.707107Z" fill="black"/>
<path fill-rule="evenodd" clip-rule="evenodd" d="M52.8508 30.6033C53.3547 30.8263 53.5 31.3511 53.5 31.8535C53.5 32.3878 53.1253 32.8826 52.5486 33.2982C51.953 33.7274 51.0427 34.1485 49.7375 34.5218C49.1732 34.6831 48.5303 34.8369 47.8003 34.9788C45.5718 37.2172 43.1211 40.1444 41.4124 42.6363L40.5876 42.0708C42.0887 39.8817 44.1441 37.3711 46.1382 35.2577C43.6281 35.6193 40.319 35.8535 36 35.8535H0V34.8535H36C41.1164 34.8535 44.7624 34.5218 47.3119 34.0534C47.5989 33.7691 47.8818 33.4965 48.1588 33.238C49.4113 32.069 50.5883 31.1425 51.4828 30.7411C51.9067 30.5509 52.4139 30.41 52.8508 30.6033ZM49.2095 33.6306C49.2958 33.6073 49.3801 33.5839 49.4625 33.5603C50.7073 33.2044 51.497 32.8234 51.9639 32.4869C52.4497 32.1369 52.5 31.9026 52.5 31.8535C52.5 31.6766 52.4738 31.5811 52.454 31.5375C52.449 31.5265 52.4449 31.5199 52.4425 31.5165C52.4139 31.5079 52.2608 31.488 51.8922 31.6535C51.2347 31.9485 50.2996 32.6452 49.2095 33.6306Z" fill="black"/>
<path fill-rule="evenodd" clip-rule="evenodd" d="M41.1749 29.8858L37.3536 33.7071L36.6465 33L42.6465 27L43.4472 27.5772L41.8251 30.8213L45.6465 27L46.4472 27.5772L44.8251 30.8213L48.6465 27L49.3536 27.7071L43.3536 33.7071L42.5528 33.1299L44.1749 29.8858L40.3536 33.7071L39.5528 33.1299L41.1749 29.8858Z" fill="black"/>
</svg>
